<svg xmlns="http://www.w3.org/2000/svg" xmlns:xlink="http://www.w3.org/1999/xlink" width="500" zoomAndPan="magnify" viewBox="0 0 375 374.999991" height="500" preserveAspectRatio="xMidYMid meet" version="1.0">
<style> 
    .path {
      stroke-dasharray: 1000;
      stroke-dashoffset: 1000;
      animation: dash 25s linear;
    }

    @keyframes dash {
      to {
        stroke-dashoffset:0;
      }
    }
</style>
<defs>
<clipPath id="add0b27e34">
<path d="M 62.429688 40 L 310 40 L 310 337 L 62.429688 337 Z M 62.429688 40 " clip-rule="nonzero"/>
</clipPath>
</defs>
<g clip-path="url(#add0b27e34)">
<path class="path" fill="#000000" d="M 297.546875 136.710938 C 294.445312 143.164062 288.8125 147.835938 281.421875 148.132812 C 273.808594 148.433594 268.410156 143.1875 262.492188 139.195312 C 249.085938 130.144531 234.695312 122.589844 219.824219 116.238281 C 186.421875 101.972656 150.328125 93.113281 113.964844 91.8125 C 101.222656 91.355469 82.597656 95.785156 77.164062 80.128906 C 75.285156 74.707031 75.816406 68.628906 79.035156 63.824219 C 82.871094 58.109375 88.691406 56.453125 95.183594 55.558594 C 129.472656 50.855469 165.082031 56.082031 198.015625 65.929688 C 232.480469 76.242188 266.601562 92.527344 293.0625 117.3125 C 299.375 123.230469 308.902344 113.738281 302.570312 107.808594 C 276.0625 82.96875 242.523438 66.125 208.179688 55.015625 C 171.269531 43.078125 131.140625 37.089844 92.496094 42.46875 C 76.253906 44.730469 62.929688 55.839844 62.628906 73.230469 C 62.414062 85.511719 69.519531 96.816406 80.164062 102.121094 C 80.761719 102.554688 81.46875 102.886719 82.277344 103.082031 C 84.390625 103.9375 86.621094 104.570312 88.945312 104.9375 C 97.667969 106.304688 106.976562 104.949219 115.816406 105.335938 C 125.808594 105.765625 135.773438 106.800781 145.644531 108.433594 C 166.53125 111.886719 187.082031 117.589844 206.789062 125.316406 C 225.925781 132.816406 244.375 142.5 261.0625 154.535156 C 263.972656 156.632812 267.101562 158.226562 270.320312 159.320312 C 264.558594 165.511719 258.800781 171.707031 253.039062 177.902344 C 251.175781 168.789062 244.699219 160.992188 235.050781 158.113281 C 221.511719 154.074219 206.824219 162.332031 202.886719 175.796875 C 198.914062 189.347656 207.054688 204 220.570312 207.953125 C 221.832031 208.324219 223.089844 208.585938 224.347656 208.757812 C 223.847656 209.289062 223.351562 209.828125 222.855469 210.359375 C 193.996094 241.386719 165.140625 272.414062 136.289062 303.4375 C 132.65625 307.339844 129.027344 311.246094 125.394531 315.148438 C 122.164062 296.75 118.933594 278.359375 115.710938 259.960938 C 109.414062 224.113281 103.125 188.265625 96.828125 152.421875 C 95.378906 144.144531 93.921875 135.875 92.472656 127.601562 C 90.980469 119.09375 78.015625 122.695312 79.503906 131.171875 C 83.472656 153.789062 87.441406 176.402344 91.414062 199.019531 C 97.710938 234.867188 104 270.71875 110.296875 306.558594 C 111.746094 314.835938 113.199219 323.105469 114.648438 331.382812 C 115.527344 336.375 122.648438 337.828125 125.886719 334.34375 C 144.085938 314.777344 162.28125 295.207031 180.484375 275.644531 C 209.339844 244.617188 238.199219 213.589844 267.050781 182.566406 C 273.6875 175.433594 280.320312 168.300781 286.960938 161.164062 C 287.15625 160.953125 287.332031 160.734375 287.5 160.515625 C 296.492188 158.710938 304.597656 153.007812 309.167969 143.496094 C 312.890625 135.734375 301.296875 128.90625 297.546875 136.710938 Z M 215.84375 179.367188 C 220.617188 163.96875 243.742188 171.03125 239.761719 186.703125 C 234.566406 202.054688 211.085938 194.71875 215.84375 179.367188 Z M 215.84375 179.367188 " fill-opacity="0" fill-rule="nonzero"/>
</g>
<path class="path" fill="#000000" d="M 145.875 118.699219 C 132.335938 114.65625 117.648438 122.914062 113.710938 136.378906 C 109.738281 149.933594 117.878906 164.585938 131.394531 168.535156 C 144.832031 172.46875 158 164.816406 163 152.375 C 163.230469 151.917969 163.425781 151.417969 163.566406 150.859375 C 163.75 150.308594 163.863281 149.785156 163.914062 149.28125 C 166.484375 136.042969 159.207031 122.679688 145.875 118.699219 Z M 126.679688 139.953125 C 131.453125 124.554688 154.578125 131.617188 150.597656 147.289062 C 145.402344 162.636719 121.917969 155.304688 126.679688 139.953125 Z M 126.679688 139.953125 " fill-opacity="1" fill-rule="nonzero"/>
<path class="path" fill="#000000" d="M 134.074219 232.101562 C 134.074219 246.203125 145.921875 258.050781 160.035156 258.050781 C 173.992188 258.050781 184.59375 247.085938 185.875 233.722656 C 185.96875 233.21875 186.007812 232.679688 185.984375 232.105469 C 186.007812 231.53125 185.96875 230.992188 185.875 230.496094 C 184.59375 217.097656 173.996094 206.207031 160.027344 206.160156 C 145.921875 206.09375 134.074219 218.03125 134.074219 232.101562 Z M 172.542969 232.101562 C 171.921875 248.265625 147.523438 248.203125 147.523438 232.101562 C 147.523438 216.015625 171.914062 215.910156 172.542969 232.101562 Z M 172.542969 232.101562 " fill-opacity="1" fill-rule="nonzero"/>
</svg>