<svg xmlns="http://www.w3.org/2000/svg" xmlns:xlink="http://www.w3.org/1999/xlink" width="500px" viewBox="0 0 500 500" height="500px" version="1.0"><defs><clipPath id="1ff81095a2"><path d="M 104.066406 67.054688 L 270.566406 67.054688 L 270.566406 307.804688 L 104.066406 307.804688 Z M 104.066406 67.054688 " clip-rule="nonzero"/></clipPath></defs><g clip-path="url(#1ff81095a2)"><path class="path" d="M 182.289062 88.5 C 182.257812 83.371094 182.289062 78.277344 182.320312 73.148438 C 182.300781 72.804688 182.320312 72.460938 182.371094 72.121094 C 182.421875 71.777344 182.507812 71.445312 182.625 71.121094 C 182.746094 70.796875 182.898438 70.488281 183.078125 70.195312 C 183.261719 69.902344 183.46875 69.628906 183.707031 69.378906 C 183.945312 69.125 184.203125 68.902344 184.488281 68.703125 C 184.769531 68.503906 185.070312 68.339844 185.386719 68.199219 C 185.703125 68.0625 186.03125 67.960938 186.367188 67.890625 C 186.703125 67.820312 187.046875 67.785156 187.390625 67.78125 C 187.734375 67.78125 188.078125 67.816406 188.414062 67.882812 C 188.753906 67.953125 189.082031 68.054688 189.398438 68.1875 C 189.71875 68.324219 190.015625 68.488281 190.300781 68.6875 C 190.585938 68.882812 190.847656 69.105469 191.085938 69.355469 C 191.324219 69.605469 191.535156 69.875 191.71875 70.167969 C 191.902344 70.460938 192.054688 70.769531 192.175781 71.09375 C 192.296875 71.414062 192.382812 71.75 192.4375 72.089844 C 192.492188 72.429688 192.511719 72.773438 192.496094 73.121094 C 192.527344 74.910156 192.496094 76.703125 192.496094 78.492188 L 192.496094 79.667969 L 192.527344 83.15625 C 192.527344 84.949219 192.527344 86.738281 192.496094 88.53125 C 192.515625 89.292969 192.382812 90.03125 192.105469 90.746094 C 191.828125 91.457031 191.425781 92.089844 190.894531 92.636719 C 190.425781 93.082031 189.886719 93.417969 189.285156 93.648438 C 188.679688 93.878906 188.054688 93.984375 187.410156 93.964844 L 187.285156 93.964844 C 186.9375 93.96875 186.589844 93.933594 186.25 93.863281 C 185.90625 93.792969 185.578125 93.6875 185.257812 93.546875 C 184.9375 93.410156 184.636719 93.238281 184.355469 93.035156 C 184.070312 92.832031 183.8125 92.601562 183.574219 92.34375 C 183.339844 92.085938 183.132812 91.804688 182.957031 91.503906 C 182.78125 91.203125 182.636719 90.890625 182.527344 90.558594 C 182.414062 90.226562 182.339844 89.886719 182.300781 89.542969 C 182.261719 89.195312 182.257812 88.847656 182.289062 88.5 Z M 123.675781 194.308594 L 123.117188 194.378906 C 122.613281 194.410156 122.140625 194.542969 121.699219 194.78125 L 119.171875 196.234375 C 115.011719 198.609375 110.847656 200.988281 106.746094 203.460938 C 106.496094 203.632812 106.261719 203.828125 106.046875 204.042969 C 105.832031 204.261719 105.640625 204.496094 105.472656 204.75 C 105.300781 205.003906 105.15625 205.273438 105.039062 205.554688 C 104.917969 205.835938 104.828125 206.125 104.761719 206.425781 C 104.699219 206.722656 104.664062 207.027344 104.65625 207.332031 C 104.652344 207.636719 104.671875 207.941406 104.722656 208.242188 C 104.773438 208.542969 104.855469 208.835938 104.960938 209.125 C 105.066406 209.410156 105.199219 209.683594 105.359375 209.945312 C 105.78125 210.757812 106.382812 211.40625 107.164062 211.890625 C 107.945312 212.371094 108.792969 212.617188 109.707031 212.632812 C 110.460938 212.640625 111.171875 212.46875 111.835938 212.105469 C 116.550781 209.511719 121.394531 206.734375 126.664062 203.550781 C 127.128906 203.261719 127.523438 202.902344 127.859375 202.46875 C 128.195312 202.039062 128.445312 201.5625 128.609375 201.042969 C 128.777344 200.523438 128.847656 199.992188 128.828125 199.445312 C 128.804688 198.898438 128.691406 198.375 128.484375 197.871094 C 128.335938 197.351562 128.105469 196.867188 127.796875 196.425781 C 127.484375 195.980469 127.113281 195.597656 126.679688 195.277344 C 126.246094 194.953125 125.769531 194.710938 125.257812 194.542969 C 124.742188 194.378906 124.214844 194.300781 123.675781 194.308594 Z M 105.082031 119.382812 C 105.421875 120.398438 106.027344 121.210938 106.902344 121.824219 C 111.496094 124.664062 116.273438 127.445312 121.546875 130.316406 C 122.234375 130.714844 122.972656 130.910156 123.765625 130.902344 C 124.214844 130.90625 124.660156 130.84375 125.09375 130.71875 C 125.757812 130.507812 126.359375 130.179688 126.894531 129.730469 C 127.429688 129.28125 127.855469 128.746094 128.175781 128.125 C 128.332031 127.851562 128.457031 127.5625 128.558594 127.265625 C 128.65625 126.96875 128.726562 126.664062 128.769531 126.351562 C 128.8125 126.039062 128.824219 125.726562 128.804688 125.414062 C 128.789062 125.101562 128.742188 124.789062 128.664062 124.484375 C 128.585938 124.179688 128.480469 123.886719 128.347656 123.601562 C 128.214844 123.316406 128.058594 123.046875 127.875 122.792969 C 127.6875 122.539062 127.480469 122.304688 127.253906 122.089844 C 127.023438 121.875 126.777344 121.683594 126.511719 121.515625 C 122.195312 118.953125 117.136719 115.957031 112.019531 113.175781 C 111.304688 112.773438 110.539062 112.574219 109.71875 112.578125 C 108.898438 112.585938 108.132812 112.792969 107.425781 113.207031 C 106.5625 113.742188 105.886719 114.453125 105.394531 115.347656 C 104.90625 116.238281 104.667969 117.191406 104.679688 118.210938 L 104.679688 118.640625 L 104.902344 119.042969 C 104.972656 119.148438 105.035156 119.261719 105.082031 119.382812 Z M 270.441406 117.808594 C 270.363281 116.839844 270.054688 115.945312 269.515625 115.132812 C 268.980469 114.324219 268.28125 113.691406 267.417969 113.238281 C 266.578125 112.828125 265.691406 112.640625 264.757812 112.679688 C 263.820312 112.714844 262.953125 112.976562 262.148438 113.453125 C 257.644531 115.988281 253.144531 118.613281 248.671875 121.269531 C 248.378906 121.429688 248.101562 121.621094 247.84375 121.835938 C 247.585938 122.054688 247.351562 122.292969 247.140625 122.558594 C 246.929688 122.820312 246.746094 123.105469 246.59375 123.402344 C 246.4375 123.703125 246.3125 124.015625 246.222656 124.339844 C 246.128906 124.664062 246.066406 124.996094 246.039062 125.332031 C 246.011719 125.667969 246.015625 126.003906 246.054688 126.339844 C 246.09375 126.671875 246.164062 127.003906 246.269531 127.324219 C 246.371094 127.644531 246.503906 127.953125 246.667969 128.246094 C 247.105469 129.054688 247.714844 129.691406 248.5 130.164062 C 249.28125 130.632812 250.132812 130.871094 251.046875 130.871094 C 251.996094 130.863281 252.882812 130.617188 253.699219 130.132812 C 258.167969 127.628906 262.917969 124.910156 267.511719 122.101562 C 268.378906 121.488281 269.066406 120.714844 269.574219 119.785156 C 269.761719 119.476562 269.949219 119.199219 270.132812 118.921875 L 270.53125 118.425781 Z M 267.511719 203.027344 C 263.042969 200.433594 258.558594 197.847656 254.070312 195.273438 C 253.410156 194.855469 252.691406 194.585938 251.921875 194.464844 C 251.152344 194.339844 250.386719 194.375 249.628906 194.566406 C 248.992188 194.742188 248.417969 195.035156 247.90625 195.449219 C 247.390625 195.863281 246.976562 196.359375 246.667969 196.941406 C 246.503906 197.253906 246.371094 197.582031 246.269531 197.917969 C 246.167969 198.257812 246.105469 198.601562 246.074219 198.957031 C 246.042969 199.308594 246.046875 199.660156 246.085938 200.011719 C 246.128906 200.359375 246.203125 200.703125 246.3125 201.039062 C 246.421875 201.375 246.5625 201.699219 246.738281 202.003906 C 246.910156 202.3125 247.113281 202.597656 247.347656 202.867188 C 247.578125 203.132812 247.835938 203.371094 248.113281 203.585938 C 248.394531 203.800781 248.695312 203.984375 249.011719 204.140625 C 253.296875 206.640625 257.613281 209.140625 261.960938 211.644531 C 262.535156 211.945312 263.132812 212.191406 263.75 212.386719 L 264.460938 212.632812 L 264.800781 212.632812 C 265.375 212.652344 265.9375 212.578125 266.488281 212.40625 C 267.039062 212.234375 267.546875 211.972656 268.007812 211.628906 C 268.472656 211.285156 268.863281 210.871094 269.1875 210.390625 C 269.507812 209.910156 269.742188 209.390625 269.886719 208.832031 C 270.054688 208.285156 270.125 207.726562 270.101562 207.15625 C 270.074219 206.585938 269.953125 206.035156 269.738281 205.503906 C 269.519531 204.976562 269.222656 204.496094 268.839844 204.070312 C 268.457031 203.648438 268.015625 203.296875 267.511719 203.027344 Z M 215.125 276.429688 L 215.125 294.835938 C 215.125 295.667969 215.042969 296.496094 214.878906 297.3125 C 214.71875 298.128906 214.476562 298.921875 214.15625 299.691406 C 213.839844 300.460938 213.449219 301.191406 212.984375 301.882812 C 212.523438 302.578125 211.996094 303.21875 211.410156 303.804688 C 210.820312 304.394531 210.179688 304.921875 209.488281 305.382812 C 208.796875 305.847656 208.070312 306.238281 207.300781 306.558594 C 206.53125 306.878906 205.742188 307.117188 204.925781 307.28125 C 204.109375 307.445312 203.285156 307.527344 202.453125 307.53125 L 172.761719 307.53125 C 171.929688 307.53125 171.105469 307.449219 170.289062 307.285156 C 169.472656 307.121094 168.679688 306.882812 167.910156 306.5625 C 167.144531 306.246094 166.414062 305.851562 165.722656 305.390625 C 165.027344 304.925781 164.390625 304.402344 163.800781 303.8125 C 163.210938 303.222656 162.6875 302.582031 162.226562 301.886719 C 161.761719 301.195312 161.371094 300.464844 161.054688 299.695312 C 160.734375 298.921875 160.496094 298.128906 160.332031 297.3125 C 160.171875 296.496094 160.089844 295.667969 160.089844 294.835938 L 160.089844 276.429688 C 160.089844 275.597656 160.171875 274.769531 160.332031 273.953125 C 160.496094 273.136719 160.734375 272.339844 161.054688 271.570312 C 161.371094 270.800781 161.761719 270.070312 162.226562 269.378906 C 162.6875 268.683594 163.210938 268.042969 163.800781 267.453125 C 164.390625 266.863281 165.027344 266.339844 165.722656 265.875 C 166.414062 265.410156 167.144531 265.019531 167.910156 264.703125 C 168.679688 264.382812 169.472656 264.140625 170.289062 263.980469 C 171.105469 263.816406 171.929688 263.734375 172.761719 263.734375 L 202.453125 263.734375 C 203.285156 263.738281 204.109375 263.820312 204.925781 263.984375 C 205.742188 264.144531 206.53125 264.386719 207.300781 264.707031 C 208.070312 265.027344 208.796875 265.417969 209.488281 265.878906 C 210.179688 266.34375 210.820312 266.871094 211.410156 267.460938 C 211.996094 268.046875 212.523438 268.6875 212.984375 269.382812 C 213.449219 270.074219 213.839844 270.804688 214.15625 271.574219 C 214.476562 272.34375 214.71875 273.136719 214.878906 273.953125 C 215.042969 274.769531 215.125 275.597656 215.125 276.429688 Z M 206.492188 276.429688 C 206.492188 276.164062 206.46875 275.898438 206.417969 275.636719 C 206.367188 275.375 206.289062 275.121094 206.191406 274.875 C 206.089844 274.628906 205.964844 274.394531 205.816406 274.171875 C 205.671875 273.949219 205.503906 273.742188 205.316406 273.554688 C 205.128906 273.367188 204.925781 273.195312 204.703125 273.046875 C 204.484375 272.898438 204.25 272.773438 204.007812 272.667969 C 203.761719 272.566406 203.507812 272.488281 203.246094 272.433594 C 202.988281 272.382812 202.722656 272.355469 202.457031 272.351562 L 172.761719 272.351562 C 172.496094 272.351562 172.230469 272.378906 171.96875 272.429688 C 171.707031 272.484375 171.449219 272.558594 171.203125 272.660156 C 170.957031 272.765625 170.722656 272.890625 170.5 273.039062 C 170.277344 273.1875 170.070312 273.355469 169.882812 273.546875 C 169.695312 273.734375 169.523438 273.941406 169.375 274.164062 C 169.226562 274.386719 169.101562 274.621094 169 274.867188 C 168.898438 275.117188 168.820312 275.371094 168.769531 275.632812 C 168.71875 275.894531 168.691406 276.160156 168.691406 276.429688 L 168.691406 294.835938 C 168.691406 295.105469 168.71875 295.367188 168.769531 295.632812 C 168.820312 295.894531 168.898438 296.148438 169 296.398438 C 169.101562 296.644531 169.226562 296.878906 169.375 297.101562 C 169.523438 297.324219 169.695312 297.53125 169.882812 297.71875 C 170.070312 297.910156 170.277344 298.078125 170.5 298.226562 C 170.722656 298.375 170.957031 298.5 171.203125 298.601562 C 171.449219 298.707031 171.707031 298.78125 171.96875 298.835938 C 172.230469 298.886719 172.496094 298.914062 172.761719 298.914062 L 202.453125 298.914062 C 202.71875 298.910156 202.984375 298.882812 203.242188 298.832031 C 203.503906 298.777344 203.757812 298.699219 204.003906 298.597656 C 204.25 298.492188 204.480469 298.367188 204.703125 298.21875 C 204.921875 298.070312 205.125 297.898438 205.3125 297.710938 C 205.5 297.519531 205.667969 297.316406 205.816406 297.09375 C 205.960938 296.871094 206.085938 296.636719 206.1875 296.390625 C 206.289062 296.144531 206.363281 295.890625 206.414062 295.628906 C 206.464844 295.367188 206.492188 295.101562 206.488281 294.835938 Z M 246.300781 170.25 C 245.953125 173.621094 245.3125 176.933594 244.386719 180.195312 C 243.457031 183.453125 242.253906 186.605469 240.773438 189.652344 C 239.292969 192.699219 237.558594 195.59375 235.570312 198.335938 C 233.582031 201.078125 231.375 203.628906 228.941406 205.984375 C 225.601562 209.402344 222.851562 213.246094 220.695312 217.515625 C 218.539062 221.785156 217.074219 226.277344 216.296875 231 C 215.019531 238.0625 214.144531 245.175781 213.675781 252.339844 C 213.214844 257.527344 210.6875 260.308594 205.414062 260.308594 L 169.308594 260.308594 C 168.769531 260.367188 168.234375 260.367188 167.695312 260.308594 C 167.15625 260.25 166.632812 260.132812 166.121094 259.957031 C 165.609375 259.78125 165.121094 259.550781 164.660156 259.265625 C 164.199219 258.984375 163.777344 258.652344 163.386719 258.273438 C 163 257.894531 162.660156 257.480469 162.363281 257.027344 C 162.066406 256.574219 161.824219 256.089844 161.636719 255.582031 C 161.445312 255.074219 161.316406 254.554688 161.242188 254.015625 C 161.167969 253.480469 161.152344 252.941406 161.199219 252.402344 C 161.164062 241.324219 159.160156 230.617188 155.1875 220.28125 C 152.890625 214.78125 149.671875 209.890625 145.53125 205.613281 C 129.007812 188.203125 123.765625 167.65625 131.261719 144.925781 C 138.8125 122.164062 155.25 108.574219 178.960938 104.867188 C 180.074219 104.707031 181.195312 104.574219 182.320312 104.476562 C 183.441406 104.378906 184.566406 104.3125 185.695312 104.277344 C 186.824219 104.242188 187.949219 104.242188 189.078125 104.273438 C 190.203125 104.304688 191.332031 104.367188 192.453125 104.460938 C 193.578125 104.554688 194.699219 104.683594 195.816406 104.84375 C 196.929688 105 198.042969 105.191406 199.148438 105.414062 C 200.253906 105.636719 201.351562 105.890625 202.445312 106.175781 C 203.535156 106.460938 204.617188 106.777344 205.691406 107.125 C 206.761719 107.472656 207.824219 107.851562 208.878906 108.261719 C 209.929688 108.667969 210.96875 109.105469 211.996094 109.574219 C 213.019531 110.042969 214.035156 110.539062 215.03125 111.066406 C 216.03125 111.589844 217.011719 112.144531 217.980469 112.726562 C 218.945312 113.308594 219.894531 113.917969 220.828125 114.554688 C 221.757812 115.191406 222.671875 115.855469 223.566406 116.542969 C 224.460938 117.230469 225.332031 117.945312 226.1875 118.683594 C 227.039062 119.421875 227.871094 120.183594 228.683594 120.972656 C 229.492188 121.757812 230.277344 122.566406 231.042969 123.398438 C 231.804688 124.230469 232.546875 125.082031 233.261719 125.953125 C 233.976562 126.828125 234.664062 127.722656 235.328125 128.636719 C 235.992188 129.546875 236.628906 130.480469 237.242188 131.429688 C 237.851562 132.378906 238.4375 133.34375 238.992188 134.328125 C 239.546875 135.3125 240.074219 136.308594 240.574219 137.324219 C 241.074219 138.335938 241.542969 139.363281 241.980469 140.402344 C 242.421875 141.441406 242.832031 142.496094 243.210938 143.558594 C 243.59375 144.621094 243.941406 145.695312 244.261719 146.777344 C 244.582031 147.863281 244.867188 148.953125 245.125 150.054688 C 245.382812 151.152344 245.605469 152.261719 245.800781 153.375 C 245.992188 154.488281 246.15625 155.605469 246.285156 156.726562 C 246.414062 157.847656 246.511719 158.972656 246.578125 160.101562 C 246.644531 161.230469 246.675781 162.359375 246.679688 163.488281 C 246.679688 164.617188 246.648438 165.746094 246.585938 166.875 C 246.523438 168.003906 246.425781 169.128906 246.300781 170.25 Z M 183.363281 114.082031 C 162.863281 115.964844 148.1875 126.929688 141.003906 146.230469 C 133.785156 165.6875 137.980469 183.414062 152.164062 198.671875 C 153.675781 200.308594 155.25 201.914062 156.636719 203.675781 C 160.332031 208.792969 163.289062 214.304688 165.507812 220.214844 C 167.726562 226.125 169.125 232.226562 169.710938 238.511719 C 170.261719 242.496094 170.511719 246.511719 170.910156 250.464844 L 203.996094 250.558594 C 204.089844 249.476562 204.089844 248.488281 204.238281 247.46875 C 205.105469 241.199219 205.628906 234.867188 206.957031 228.691406 C 207.515625 225.742188 208.296875 222.851562 209.296875 220.019531 C 210.300781 217.191406 211.515625 214.453125 212.9375 211.8125 C 214.359375 209.167969 215.976562 206.648438 217.785156 204.253906 C 219.59375 201.859375 221.574219 199.617188 223.730469 197.53125 C 228.007812 193.257812 231.222656 188.296875 233.378906 182.644531 C 247.441406 148.292969 220.214844 110.707031 183.363281 114.082031 Z M 183.363281 114.082031 "   fill="transparent" stroke="black" stroke-width="0" id="v-b" stroke-dasharray="300"/></g><animate class="anim1" xlink:href="#v-b" attributeName="stroke-dashoffset" from="10000" to="0" dur="120s" begin="vbanim.begin" fill="freeze" id="vbanim"/><animate class="anim2" xlink:href="#v-b" attributeName="stroke-width" from="0" to="5" dur="0.2s" begin="vbanim.begin" fill="freeze" id=""/></svg>